<?xml version="1.0" encoding="utf-8"?>
<!-- Generator: Adobe Illustrator 19.0.0, SVG Export Plug-In . SVG Version: 6.00 Build 0)  -->
<svg version="1.1" id="Layer_1" xmlns="http://www.w3.org/2000/svg" xmlns:xlink="http://www.w3.org/1999/xlink" x="0px" y="0px"
	 width="600px" height="600px" viewBox="0 0 600 600" style="enable-background:new 0 0 600 600;" xml:space="preserve">
<style type="text/css">
	.st0{fill:#593259;}
	.st1{fill:#019547;}
</style>
<path id="color_x5F_2" class="st0" d="M597.8,257.4c-37.9-24.5-72.3-72.3-72.7-72.8c-1.3-1.9-3.8-2.5-5.9-1.6
	c-0.1,0.1-5.3,2.3-14.1,5.2c-10.5-23.8-27.6-35.2-27.6-35.2s1.7-28.5-13.6-44.4c-15.2-15.9-63-13.2-63-13.2
	c-14.2-11.1-29.4-17.8-35.3-20.2c0.4-2.2,0.8-4.7,1.2-7.5c8.6-2.2,9.3-12.5,7.5-15.5c-1.3-2.1-4.6-1.5-6.5-1c0-0.2,0-0.3,0-0.5l0,0
	c0,0,2.6-25.1-2.2-31.4c-4.8-6.3-24.2-9.7-33.4-16.7c0,0,1.2,7.9,6.7,12.4c0,0-12.3-7.2-23.5-7c-11.1,0.2-27.1,12.3-27.1,12.3
	s21.4,14,24.7,30.8c-2-0.5-5-1-6.3,1c-1.8,2.9-1.1,13.3,7.5,15.5c0.4,2.8,0.8,5.4,1.2,7.5c-6,2.4-21.2,9.1-35.3,20.2
	c0,0-47.8-2.7-63,13.2C202,124.6,203.7,153,203.7,153s-29.8,20-34.9,62c0,0-20.3,10.5-31.8,38.3c-11.5,27.8-7.8,77.9-12.9,96.9
	c0,0,2.2,2.9,5.2,7.1c-2.3,4-3.3,9.1-2.7,14.5c-18.6,10.5-46.3,23.8-66.9,24.3c-0.4,0-0.7,0-1.1,0c-25.5,0-56.1-19.6-56.4-19.8
	c-0.5-0.3-1.1-0.3-1.5,0c-0.5,0.3-0.7,0.8-0.6,1.4c0.4,2.4,9,59.2,45.2,74.3c2.9,1.2,6.1,1.8,9.5,1.8c0,0,0,0,0,0
	c27,0,65.3-36.3,86.3-58.7c0.4,0.2,0.8,0.5,1.2,0.7c1.9,0.6,3.9,0.8,5.8,0.7c1.1-0.1,2.2-0.2,3.2-0.5c0.7-0.2,1.3-0.4,2-0.6
	c0.9-0.3,1.7-0.7,2.5-1.1c0.4-0.2,0.7-0.4,1-0.6c0.4-0.2,0.7-0.4,1-0.6c0.6-0.4,1.1-0.9,1.7-1.4c1.3-1.4,2.3-3,3-4.8
	c0.4-1,0.7-2,0.9-3.1c0.5-3,0.5-6.1-0.2-9.2c-1.2-6.1-4.4-12.1-9-16.5c-2.3-2.2-5-4-8-5.1c-0.2-0.1-0.5-0.2-0.7-0.2
	c-1.3-0.4-2.7-0.7-4.1-0.8c-1.7-0.1-3.4,0.1-5.1,0.6c2.6-2.1,6.3-2.9,9.9-2.6c0.2,0,0.5,0,0.7,0.1c3.8,0.5,7.4,2.1,10.4,4.4
	c0.7,0.5,1.3,1,1.9,1.6c1.5,1.3,2.8,2.7,4,4.3c0.4,0.5,0.8,1.1,1.1,1.6c0.2,0.3,0.4,0.6,0.6,1c0.5,0.8,1,1.7,1.4,2.5
	c0.4,0.9,0.8,1.7,1.2,2.6c0,0.1,0.1,0.2,0.1,0.3c0.6,1.7,1.2,3.4,1.5,5.2c0.4,1.8,0.5,3.7,0.5,5.6c4.4-5.2,9.1-10.7,13.7-12.9
	c0,0-0.7-3.3-2.5-6.9l1.5-1.1c0.6,0.1,1.3,0.2,2,0.2c2.3,0,4.6-0.7,6.5-2.1c5-3.6,6.1-10.5,2.6-15.5c-2.1-2.9-5.5-4.6-9.1-4.6
	c-2.3,0-4.6,0.7-6.5,2.1c-0.6,0.4-1.1,0.9-1.6,1.4c-4.1-3.6-11.2-6.8-20.3-3.6c0,0,5.4-20,16.3-29.5c10.8-9.5,30.8-37.9,26.1-65.4
	c0,0,30.8-11.2,46.4-38.3c0,0,4.8,21.5,0,35.9c-4.8,14.4-72.4,81.2-38.3,182.6c0-0.5,0-1.1,0.1-1.6c0.1-2.5,0.3-5.1,0.6-7.6
	c0.6-5.6,1.6-11.1,2.8-16.6c2.5-11,6.1-21.8,10.8-32.1c9.3-20.7,23.1-39.6,40.9-53.9c2.2-1.8,4.5-3.5,6.8-5.2
	c2.3-1.6,4.5-3.2,6.7-4.8c4.3-3.3,8.5-6.9,12.4-10.7c2.7-2.7,5.4-5.4,8-8.2c1.1-1.2,2.2-2.5,3.3-3.8c3.6-4.2,6.9-8.6,10.1-13.1
	c1.2-1.8,2.4-3.5,3.6-5.3c1.8-2.8,3.6-5.7,5.3-8.6c2.8-4.8,5.4-9.6,7.8-14.6c2.4-5,4.7-10.1,6.7-15.3c1-2.6,2-5.2,2.9-7.8
	c0.9-2.6,1.8-5.3,2.6-8c-0.9,5.5-2.2,11-3.8,16.4c-1.6,5.4-3.5,10.7-5.6,15.9c-2.1,5.2-4.5,10.4-7,15.4c-2.6,5-5.4,9.9-8.5,14.7
	c-3,4.8-6.4,9.4-10,13.8c-3.6,4.4-7.3,8.7-11.4,12.7c-1.4,1.4-2.9,2.8-4.3,4.1c-2.7,2.5-5.6,4.9-8.5,7.2c-2.2,1.8-4.6,3.5-6.9,5.1
	c-2.2,1.6-4.4,3.2-6.5,4.9c-8.6,6.8-16.2,14.8-23,23.3c-3.4,4.3-6.5,8.8-9.5,13.5c-2.9,4.7-5.6,9.5-8.1,14.4
	c-4.9,9.9-9,20.2-12.1,30.8c-0.8,2.5-1.4,5-2.1,7.6c4.2-9,12.8-19.3,30.4-24.1c3.1-0.9,6.8-1.5,10.9-2c-8.4,38.1-3.7,62-3.7,62
	s-11,18.8-15.7,35.7h0c0,0,0,0,0,0c-0.7,2.4-1.2,4.7-1.6,6.9c0,0.1,0,0.3-0.1,0.4c-1.8,8.6-4.7,23.2-6.1,35.9
	c-2,19.3-5.8,38.6-5.8,38.6s2.3,1.5,6.5,2.9c-8.8,9.4-32.2,26.9-33.9,33c-2,7.1,28.5,3.7,37.6,0c9.1-3.7,22.4-14.9,21.3-18
	c-0.4-1.2-1.2-7.1-1.3-14.6c1.8-0.4,3.7-1,5.6-1.7c0,0,12.2-46.9,15.6-59l0,0c5-14.5,8.1-33.4,6.3-57.6l15.5-27.4
	c5.2-9.1,10.2-18.2,15.1-27.4c1.8-3.5,3.6-6.9,5.4-10.4c2.9-5.8,5.8-11.6,8.5-17.5c4.4-9.5,8.4-19.1,12-29
	c-1.1,10.5-4,20.9-7.6,30.8c-2,5.4-4.2,10.7-6.6,15.9c16.8,0.7,33.5,1.5,47.4,1.7c17.1,34.8,38.4,63.3,38.4,63.3
	c-1.9,24.4,1.3,43.4,6.4,58c3.6,12.7,15.5,58.6,15.5,58.6c1.9,0.7,3.8,1.2,5.6,1.7c-0.1,7.5-0.9,13.3-1.3,14.6
	c-1,3,12.2,14.2,21.3,18c9.1,3.7,39.6,7.1,37.6,0c-1.7-6.1-25.2-23.7-33.9-33c4.2-1.3,6.6-2.9,6.6-2.9s-3.7-19.3-5.8-38.6
	c-1.4-12.9-4.3-27.8-6.2-36.3c-0.3-2-0.8-4-1.4-6.1c-0.1-0.5-0.2-0.7-0.2-0.7l0,0c-4.7-17-15.7-35.8-15.7-35.8s5.4-27.4-5.8-70.5
	c-11.2-43-42-85-42-85l1.3-12.6c-1.9-3.4-3.7-6.8-5.6-10.1c-5.2-9.1-10.7-18.2-16.2-27.2c-5.5-9-11.1-18-16.6-27.2
	c7.5,7.6,14.2,15.9,20.6,24.5c6.2,8.4,12,17.2,17.2,26.2c0.1,0.2,0.2,0.4,0.3,0.6c0.5,0.8,1,1.7,1.4,2.6c4.7,8.5,9,17.3,12.4,26.4
	c0.3,0.9,0.7,1.9,1,2.8c4.2-3.2,8-7.5,11.3-12.4c0.4,3.7,1,7.5,1.6,11.3c4.3,27.5,11.9,52.6,22.5,74.7c13.4,27.7,31.7,50.6,54.4,68
	c0.9,0.7,1.9,1,2.9,1c0.8,0,1.5-0.2,2.2-0.5c37.5-19.6,67.4-55.3,86.3-103.2c14.2-36,17.3-65.8,17.5-67.1
	C600.2,260.1,599.3,258.4,597.8,257.4z M27.8,409.6c4.7,3.2,9.7,6,14.8,8.3c5.1,2.2,10.5,4,15.9,4.6c2.7,0.3,5.4,0.3,8.1-0.1
	c2.7-0.3,5.4-1,8.1-1.8c5.4-1.5,10.7-3.6,15.9-5.9c5.2-2.2,10.3-4.8,15.5-7.3c10.2-5.2,20.2-10.7,30.2-16.4c0,0,0.1-0.1,0.1-0.1
	c0,0-0.1,0.1-0.1,0.1c-8.9,7.2-18.5,13.7-28.4,19.6c-10,5.8-20.4,11.1-31.8,14.5c-2.9,0.8-5.8,1.4-8.8,1.8c-3,0.4-6.2,0.3-9.2-0.1
	c-6-0.9-11.7-2.9-16.9-5.7c-5.2-2.7-10.1-6.1-14.6-9.8c-4.5-3.7-8.7-7.8-12.3-12.3C18.5,402.9,23,406.4,27.8,409.6z M573.6,325.5
	c-12.4,31.3-36.1,73.1-79.1,96.8c-46.9-37.4-64.4-93.5-70.8-134.4c-1.4-8.7-2.3-17-2.9-24.9c-0.9-11.6-1.1-22-1-30.8
	c0-4.2,0.2-7.9,0.3-11.3c0.2-4.8,0.5-8.7,0.7-11.4c3.1,0.2,6.3,0.2,9.5,0.3c0.5,0,0.9,0,1.4,0c0,0,0,0,0,0c0.6,0,1.2,0,1.8,0
	c0.7,0,1.5,0,2.2,0c1.8,0,3.6-0.1,5.4-0.2c28.8-1.2,53-7.6,67.5-12.4c4.8-1.6,8.5-3,11-4c8.2,11,37.3,48.2,70.5,70.5
	C589,272,584.9,296.9,573.6,325.5z M432.7,154.9c1.2-5.1,2.8-10.2,4.8-15.1c2-4.9,4.4-9.7,7.3-14.2c1.5-2.2,3-4.4,4.8-6.5
	c0.9-1,1.8-2,2.8-2.9c1-0.9,2-1.8,3.2-2.5c-1.3,2.3-2.4,4.7-3.5,7.1c-1.1,2.4-2.1,4.7-3.1,7.1c-2,4.7-3.9,9.5-5.9,14.3
	c-1.9,4.8-3.9,9.6-5.9,14.3c-2.1,4.8-4.2,9.6-6.8,14.3C430.6,165.3,431.5,160,432.7,154.9z M340.7,93.2L340.7,93.2
	c-3.4,0-11.8-1.3-16.1-7.2c-1-1.3-1.8-2.9-2.2-4.7c-0.2-0.7-0.3-1.3-0.4-2.1c-0.2-1.6-0.1-3,0.1-4.3c1.4-6.8,8.3-8.9,10.9-12.4
	c3.5-4.7,7.6-4.5,7.6-4.5h0c0,0,4.1-0.2,7.6,4.5c2.6,3.5,9.5,5.6,10.9,12.4c0.3,1.2,0.3,2.7,0.1,4.3c-0.1,0.7-0.2,1.4-0.4,2.1
	c-0.4,1.8-1.2,3.3-2.1,4.6C352.5,91.8,344,93.2,340.7,93.2z M244.1,156.4c-2.1-4.8-4-9.6-5.9-14.3c-1.9-4.8-3.9-9.5-5.9-14.3
	c-1-2.4-2-4.7-3.1-7.1c-1.1-2.4-2.1-4.7-3.5-7.1c1.2,0.7,2.2,1.6,3.2,2.5c1,0.9,1.9,1.9,2.8,2.9c1.8,2,3.3,4.2,4.8,6.5
	c2.9,4.5,5.3,9.3,7.3,14.2c2,4.9,3.6,10,4.8,15.1c1.2,5.2,2.1,10.4,2.3,15.8C248.3,165.9,246.2,161.2,244.1,156.4z M342.5,127.2
	c0.9,10.4,3.3,56.3-22.1,61.2c-3.3,0.6-6.5,0.9-9.4,0.9c-10.2,0-17.8-3.5-23-7.2c-1.9,1.4-4.3,2.3-6.8,2.3
	c-6.2,0-11.3-5.1-11.3-11.3c0-6.2,5.1-11.3,11.3-11.3c6.2,0,11.3,5.1,11.3,11.3c0,2.5-0.8,4.8-2.2,6.6c6,4.1,15.6,7.9,29.4,5.3
	c2-0.4,3.8-1.1,5.5-2.1c-0.8-1.1-1.7-2.3-2.5-3.4c-1.2-1.7-2.4-3.4-3.5-5.1c-2.4-3.4-4.6-6.8-6.8-10.3c-4.5-6.9-8.8-13.9-12.9-21
	c-0.5-0.8-0.5-1.8-0.2-2.6l0-0.1l3-6.9c1-2.3,2-4.6,3.1-6.9c1.1-2.3,2.1-4.6,3.1-6.8c0.7-1.4,1.3-2.8,2-4.3
	c-2.3-1.1-4.6-2.1-6.9-3.2c-3.2-1.5-6.3-3.1-9.5-4.6l-0.2-0.1c-1-0.5-1.4-1.7-0.9-2.8c0.1-0.1,0.2-0.3,0.2-0.4l4.4-5.4
	c1.5-1.8,3-3.6,4.5-5.3c3-3.5,6.1-7.1,9.2-10.5c-2.3,4.1-4.7,8.1-7.2,12c-1.2,2-2.5,3.9-3.7,5.9l-2.3,3.5c2.5,1,5,1.9,7.4,2.9
	c3.3,1.3,6.5,2.6,9.8,4c1.4,0.6,2.1,2.2,1.5,3.7l0,0l-0.1,0.1c-1,2.3-2,4.6-3,6.9c-1,2.3-2,4.6-3.1,6.9c-1,2.3-2.1,4.6-3.1,6.9
	l-2.6,5.5c3.7,6.8,7.3,13.6,10.7,20.5c1.8,3.7,3.6,7.4,5.4,11.1c0.9,1.9,1.7,3.7,2.6,5.6c0.6,1.3,1.1,2.6,1.7,3.9
	c16.3-10.3,14.2-47.3,13.5-55.6H333c-5.5,0-9.9-5-10-11.2L321,87.5c1.1,1,2.4,2,3.9,2.9l1.9,25.5c0,0,0,0.1,0,0.1
	c0,4.2,2.8,7.6,6.3,7.6h15.3c3.5,0,6.3-3.4,6.3-7.6c0,0,0-0.1,0-0.1l1.9-25.6c1.5-0.9,2.8-1.9,3.9-2.9l-2.1,28.7
	c0,6.2-4.5,11.2-10,11.2H342.5z M372.7,120c1.1,2.3,2.1,4.6,3.1,6.8c1.1,2.3,2.1,4.6,3.1,6.9l3,6.9l0,0.1c0.4,0.9,0.3,1.8-0.2,2.6
	c-4.5,7.6-9.1,15.2-13.9,22.6c-2.4,3.7-4.8,7.4-7.3,11.1c-1.2,1.8-2.5,3.7-3.8,5.5c-1.3,1.8-2.6,3.6-3.9,5.4
	c0.9-2.1,1.8-4.1,2.7-6.1c0.9-2,1.9-4,2.8-6c1.9-4,3.9-8,5.8-11.9c3.8-7.4,7.7-14.8,11.7-22.1l-2.6-5.5c-1-2.3-2.1-4.6-3.1-6.9
	c-1-2.3-2.1-4.6-3.1-6.9c-1-2.3-2-4.6-3-6.9l0-0.1c-0.6-1.4,0.1-3.1,1.5-3.7l0,0c3.2-1.4,6.5-2.7,9.8-4c2.5-1,5-2,7.4-2.9l-2.3-3.5
	c-1.3-2-2.5-3.9-3.7-5.9c-2.5-3.9-4.9-7.9-7.2-12c3.2,3.4,6.2,6.9,9.2,10.5c1.5,1.8,3,3.5,4.5,5.3l4.4,5.4c0.7,0.9,0.6,2.2-0.3,2.9
	c-0.1,0.1-0.2,0.2-0.4,0.2l-0.2,0.1c-3.1,1.6-6.3,3.1-9.5,4.6c-2.3,1.1-4.6,2.2-6.9,3.2C371.4,117.2,372.1,118.6,372.7,120z
	 M521.3,204c-0.7-0.9-2-1.3-3.2-0.8c-1.9,0.8-4.3,1.7-7.2,2.7c-12.9,4.6-34.9,11.1-61.4,13.5c-5.1,0.5-10.4,0.8-15.8,0.9
	c-1,0-1.9,0-2.9,0.1c-1.5,0-2.7,1.2-2.7,2.6c-0.2,5.5-0.2,12.2,0,19.9c0.4,12.5,1.6,27.5,4.4,43.9c4.3,25.2,11.5,48.3,21.3,68.6
	c10.7,22.1,24.3,40.5,40.6,54.7c0.5,0.4,1.2,0.7,1.8,0.7c0.5,0,0.9-0.1,1.3-0.3c10.1-5.6,19.4-12.4,28-20.3
	c4.5-4.1,8.7-8.5,12.8-13.2c2.2-2.5,4.3-5.1,6.3-7.8c4.4-5.8,8.5-11.9,12.3-18.5c0.1-0.1,0.1-0.2,0.2-0.3c5.8-10,11-20.9,15.5-32.5
	c7.3-19.2,11.3-36.6,13.4-47.9c0.2-1-0.2-2.1-1.1-2.7C557.4,247.4,533.3,219.1,521.3,204z M505.7,359.3c-1.6-0.3-3.2-0.6-4.7-1.1
	c-24.6-7.3-41.6-38.7-37.3-72.2c2.2-16.7,9.2-30.2,18.7-38.8c10.3-9.3,23.6-12.8,36.8-8.6c12.1,3.8,22.2,13.6,28.8,26.3
	c6.5,12.5,9.7,27.8,8.2,43.3c-0.4,4.2-1.1,8.2-2.2,12.1C547.3,345.8,527.8,362.9,505.7,359.3z"/>
<path id="color_x5F_1" class="st1" d="M538.2,319.2c-0.4,0-0.8,0-1.2-0.1l-12.9-2.9l-1.3,12l-0.7,6.4c0,0.1,0,0.3-0.1,0.4
	c-0.6,4.2-3.5,7.2-7,7.2c-0.4,0-0.7,0-1.1-0.1l-8-1.5c-0.5-0.1-1-0.3-1.4-0.5c-3.1-1.4-5.1-5.3-4.6-9.5l2.2-19.3l-14.7-3.3
	c-4-0.9-6.7-5.4-6.1-10.3l1.3-10.7c0.5-4.3,3.5-7.3,7.1-7.3c0.1,0,0.1,0,0.2,0c0.5,0,0.9,0.1,1.4,0.2l14,3.5l2.1-18.2
	c0.5-4.1,3.3-7,6.7-7c0.6,0,1.1,0.1,1.7,0.2l7.7,2.2c3.6,1,6.1,5.4,5.6,9.9l-2,18.3l13.2,3.3c3.6,0.9,6,5.1,5.5,9.7l-1,10
	C544.4,316.2,541.6,319.2,538.2,319.2z"/>
</svg>
