<?xml version="1.0" encoding="utf-8"?>
<!-- Generator: Adobe Illustrator 19.0.0, SVG Export Plug-In . SVG Version: 6.00 Build 0)  -->
<svg version="1.1" id="Layer_1" xmlns="http://www.w3.org/2000/svg" xmlns:xlink="http://www.w3.org/1999/xlink" x="0px" y="0px"
	 width="600px" height="600px" viewBox="0 0 600 600" style="enable-background:new 0 0 600 600;" xml:space="preserve">
<style type="text/css">
	.st0{fill:#207785;}
</style>
<path id="color_x5F_1" class="st0" d="M532,442.2c-0.7,0-1.5-0.1-2.2-0.4l-12.3-4.9l-4.9,14.9c-1,3.1-3.7,5.2-6.7,5.2
	c-0.7,0-1.5-0.1-2.2-0.4l-7.6-2.8c-3.6-1.3-5.5-5.7-4.1-9.7l5.2-15.5l-7-2.8l-6.7-2.7c-3.7-1.5-5.6-5.9-4.2-9.9l3-8.7
	c0.9-2.5,2.9-4.3,5.2-4.8c0.5-0.1,1-0.2,1.5-0.2c0.9,0,1.8,0.2,2.7,0.6l13.2,5.7l4.9-14.7c1-2.9,3.5-4.8,6.3-4.8
	c0.9,0,1.8,0.2,2.6,0.6l7.2,3.3c3.3,1.6,5,5.7,3.8,9.5l-4.8,14.7l12.3,5.3c3.3,1.4,4.9,5.5,3.7,9.3l-2.6,8.2
	C537.4,440.2,534.9,442.2,532,442.2z M158,505C158,505,158,505,158,505c9.3,0,18.8-1.8,28.5-5.4c6.6,5.1,13.5,9.7,20.8,13.8
	c22,27.8,61.9,34.9,79.8,34.9c17.9,0,57.8-7.1,79.8-34.9c7.6-4.3,14.9-9.1,21.8-14.5c19.2,3.6,35.9-0.9,49.9-9.3
	c7.7,14,17.4,26.7,28.9,38c0.8,0.8,1.9,1.3,3.1,1.3c0.3,0,0.7,0,1-0.1c49.9-11.7,82.2-44.6,100.4-70c19.7-27.5,27.6-51.9,27.9-53
	c0.5-1.7,0-3.5-1.4-4.7c-32.8-27.6-58.5-74-58.7-74.5c-0.9-1.7-2.8-2.5-4.6-2.2c-0.1,0-15.1,2.7-37.3,2.7c-18.6,0-36.6-1.8-53.7-5.4
	c-20.7-67.1-83.2-116-157-116c-80.2,0-147.2,57.8-161.5,134c-5.5-6.7-13.6-12.8-23.5-17.6c19.3-64.4,46.4-125.7,80.8-182.1
	c0.5-0.8,0.6-1.7,0.5-2.5c-4.9-27-8.3-54.7-10.1-82.4c0,0,0,0,0,0c0-0.3-0.1-0.5-0.1-0.8c0-0.1-0.1-0.1-0.1-0.2
	c-0.1-0.2-0.1-0.4-0.2-0.5c0-0.1-0.1-0.2-0.1-0.2c-0.1-0.2-0.2-0.3-0.3-0.4c-0.1-0.1-0.1-0.1-0.2-0.2c-0.1-0.1-0.3-0.3-0.5-0.4
	c-0.1,0-0.1-0.1-0.1-0.1c0,0,0,0,0,0c0,0,0,0,0,0c-0.2-0.1-0.5-0.2-0.7-0.3c0,0-0.1,0-0.1,0c-0.2-0.1-0.5-0.1-0.7-0.1
	c-0.1,0-0.2,0-0.2,0c-0.2,0-0.4,0-0.6,0c-0.1,0-0.2,0-0.3,0c-0.2,0-0.4,0.1-0.5,0.2c-0.1,0-0.1,0-0.2,0.1
	c-24.5,10.8-49,23.1-72.7,36.5c-0.8,0.4-1.3,1.1-1.6,1.9c-25.8,71.4-42.2,146-48.8,221.8c-12.3,1.6-23.3,5.7-31.4,12.1
	C5.5,330.8,0.8,339,0.1,348.3c-0.7,8.6,2.3,17.4,8.3,25.1c2.4,6.2,7,13.3,15.6,20.5c-1,6.4-1.3,19.1,4.4,29.4
	c-2.3,6.8-6.4,25.1,8.7,42.4c1.4,1.5,2.9,2.9,4.6,4.1c-3.4,9.6-2.4,20.9,3,29.9c4.6,7.7,11.5,12.7,19.5,14.2
	c1.6,0.3,3.1,0.4,4.7,0.4c5.6,0,11.1-1.9,15.7-5.5c10.3-8.1,14.1-22.6,10.1-35.5C113.6,494.2,135.2,505,158,505z M80,503.1
	c-4.2,3.3-9.4,4.6-14.5,3.6c-5.9-1.1-11.1-4.9-14.5-10.8c-1.4-2.4-2.5-5-3.1-7.6c9.5,4.5,21.6,6.1,34.2,3.9c2-0.3,4-0.8,5.9-1.3
	C86.6,495.8,83.9,500.1,80,503.1z M37.2,424.9c0.8-1.4,0.7-3.1-0.2-4.5c-7-10.7-4-26.3-3.9-27.2c0.4-1.7-0.2-3.5-1.5-4.6
	c-12.3-9.7-18-20.5-16.2-30.4c1.6-8.6,9-15.9,19.3-19.1c11.7-3.6,28.5,0.9,47.6,12.7c-1.9,3.9-2.9,9-2.9,15.3
	c-3.3,4.7-7.1,11.4-8.8,18.3c-2.3,0.5-4.6,0.9-6.9,1.2c-7,1-14.1,1.4-21.3,0.4c6.8,2.7,14.1,4.2,21.4,4.9c2.3,0.2,4.5,0.4,6.8,0.5
	c1.4,0.1,2.8,0.1,4.2,0.1c0.4,0,0.7,0,1.1,0c1.5,0,3,0,4.5-0.1c0.3,0,0.6,0,1,0c0.5,0,0.9,0,1.4-0.1c0.4,1.3,0.7,2.4,1.1,3.6
	c4.6,13.1,11.4,16.3,17,16.3c0.2,0,0.5,0,0.7,0c-0.5,0.7-0.9,1.3-1.3,2c-1.3,1.9-2.6,3.5-3.9,4.9c-1.3,1.4-2.5,2.6-3.9,4
	c-1.4,1.4-3,2.6-4.9,3.4c-1.9,0.8-4,1.4-6.2,1.8c-1.6,0.3-3.3,0.5-4.9,0.6c-0.6,0-1.2,0.1-1.8,0.1c-1.2,0-2.4,0.1-3.6,0
	c-1.3,0-2.7-0.1-4-0.2c-0.5,0-1-0.1-1.5-0.2c-1.6-0.2-3.3-0.4-4.9-0.7c0,0,0,0,0,0c-0.2,0-0.4,0.1-0.5,0.3c-0.1,0.3,0,0.6,0.2,0.7
	c2.2,1.3,4.6,2.4,6.9,3.3c0.5,0.2,1,0.4,1.5,0.5c1.6,0.6,3.3,1,4.9,1.4c0.2,0.1,0.4,0.1,0.7,0.2c1.8,0.4,3.5,0.7,5.4,0.8
	c0.7,0.1,1.4,0.1,2.2,0.1c2.6,0,5.2-0.2,7.8-0.7c1.3-0.3,2.5-0.6,3.8-1.1c2.1,8.8,0.6,15.3-2.3,20.1c-0.7,1.2-1.5,2.3-2.3,3.2
	c-0.2,0.3-0.5,0.6-0.7,0.8c-1.2,1.2-2.4,2.3-3.6,3.2c-0.8,0.6-1.6,1.1-2.4,1.6c-12.7,7.6-30.3,6.3-38.5-2.7
	C29.5,443.5,36.6,426.2,37.2,424.9z M161.1,63.1c-17.3,31.6-32.6,64.3-45.6,97.8c-23.8,47.2-43.5,97.6-58.4,150.6
	c-1.6,0-3.1,0-4.6,0.1c6.6-74.3,22.7-147.5,47.8-217.5C120.1,82.9,140.6,72.5,161.1,63.1z M104.8,289.8c-4.4-10.9-8.5-22-12.5-33.3
	c17-66,42-129.3,74.5-188.8c1.9,23.4,4.9,46.8,9,69.7C147,185.1,123.2,236.2,104.8,289.8z M18.2,330.1c7.6-6,18-9.7,29.9-10.8
	c0,0,0,0,0,0c0.4,0,0.8,0,1.1-0.1c6.7-0.6,13.7-0.3,21,0.8c11.8,1.8,22.6,5.4,31.5,10.1c-2.1-0.2-4.2-0.3-6.4-0.4
	c-10.8-0.3-21,1-30.3,3.6c-12.5-4.6-23.6-5.5-32.9-2.6c-12.3,3.8-21.5,12.5-24.7,23c-0.2-1.6-0.2-3.1-0.1-4.7
	C8,341.7,11.7,335.2,18.2,330.1z M497.8,335.8c17.3,0,30.1-1.5,35.7-2.3c5.9,10.3,28.2,47.2,56.9,72.3c-2.6,7-10.6,26.8-25.9,48
	c-17.1,23.8-47,54.2-92.8,65.8c-10.5-10.5-19.2-22.2-26.2-34.9c-6.2-11.2-11-23.2-14.5-36c-0.3-1.1-0.6-2.2-0.9-3.4
	c-0.3-1.2-0.6-2.3-0.8-3.5c0,0,0,0,0,0c-0.3-1.3-0.6-2.5-0.8-3.8c-0.2-0.9-0.4-1.9-0.6-2.8c-0.1-0.4-0.1-0.8-0.2-1.2
	c-0.6-3.2-1.1-6.3-1.5-9.6c-0.5-3.5-0.8-7-1.1-10.6c-0.1-0.9-0.1-1.9-0.2-2.8c-0.1-0.9-0.1-1.8-0.2-2.7c-0.2-3.9-0.3-7.8-0.3-11.7
	c0-0.9,0-1.7,0-2.6c0-1.1,0-2.1,0.1-3.2c0-2,0.1-3.9,0.2-5.8c0-0.4,0-0.8,0.1-1.2c0.4-7.6,1.2-14.7,2.1-21.2c1-7,2.2-13.2,3.3-18.5
	c0.3-1.4,0.6-2.7,0.9-3.9c0.4-1.5,0.7-2.9,1-4.2c0.8-3.1,1.5-5.6,2.1-7.5c0.6,0.1,1.2,0.3,1.8,0.4c0.9,0.2,1.8,0.4,2.6,0.6
	c0.9,0.2,1.7,0.4,2.6,0.6c0,0,0,0,0,0c0.9,0.2,1.7,0.3,2.6,0.5c0.9,0.2,1.7,0.3,2.6,0.5C463.1,334.2,480.2,335.8,497.8,335.8z
	 M196.6,495.3c-1.5-1.1-2.9-2.1-4.3-3.2c-1.4-1.1-2.8-2.2-4.2-3.4c-1.8-1.5-3.6-3.1-5.3-4.7c-13.7-12.6-25.2-27.5-33.7-44.3
	c6.5,9.5,14.1,18.4,22.8,26.6c6.2,5.9,12.9,11.2,19.8,16.1c0.7,0.5,1.4,1,2.1,1.4c0.1,0.7,0.3,1.3,0.4,2c0.4,1.6,0.8,3.2,1.2,4.7
	c0.5,1.6,1,3.1,1.5,4.6c0.1,0.2,0.1,0.4,0.2,0.6C197,495.6,196.8,495.5,196.6,495.3z M158,495.5C158,495.5,158,495.5,158,495.5
	c-22.9,0-41.4-12.6-55.5-27.9c16.5,11,38.8,19.4,67.9,17.8c2.4,2.5,4.9,4.8,7.5,7.1C171,494.5,164.4,495.5,158,495.5z M209.2,425.8
	c-1.1,1.1-2.1,2.3-3.2,3.5c-1,1.2-2,2.5-3,3.8c-1.8,2.5-3.5,5.2-4.9,8.1c-4.4,8.8-6.8,19.5-5.8,32.9c-23.2-16.8-41.5-39.4-51.8-64.8
	c-0.3-1.4-0.4-2.7-0.5-4c-0.3-4.4,0.2-8.7,1.5-12.7c0.1-0.4,0.2-0.7,0.4-1.1c2.8,2.1,5.8,4.1,9.1,6.1c2.4,1.4,4.9,2.8,7.6,4.2
	c4.3,2.2,8.9,4.3,13.9,6.4c4.3,1.8,8.8,3.4,13.4,5c4.4,1.5,8.9,2.9,13.6,4.2c4.8,1.3,9.7,2.5,14.7,3.7
	C212.5,422.5,210.8,424.1,209.2,425.8z M89.4,390c-0.3-1.1-0.6-2.3-0.8-3.5c-0.3-1.4-0.6-2.8-0.8-4.3c-0.1-0.6-0.2-1.2-0.3-1.8
	c0-0.3-0.1-0.6-0.1-1c-0.4-2.8-0.6-5.3-0.8-7.8c-0.2-4.1-0.1-7.7,0.4-10.7c0.4-2.8,1.2-5.1,2.2-6.8c0.3-0.4,0.5-0.9,0.8-1.2
	c0.6-0.8,1.3-1.4,2-1.8c0.9-0.6,2-0.9,3.2-1.1c0.4,0,0.8-0.1,1.2-0.1c7.5,0,14.7,8,17.8,19.1c0.5,1.8,0.9,3.8,1.2,5.8
	c0,0,0,0.1,0,0.1c0.2,1.4,0.3,2.7,0.4,4c-0.1,0.4,0,0.8,0,1.2c0,0,0,0,0,0c0.1,4.6-0.6,9-2,12.8c-2.2,6.4-6.2,11-11.3,12
	c-0.6,0.1-1.1,0.2-1.7,0.2C96,405.2,92.1,399.8,89.4,390z M150.7,336.7c0.3-9.8,2.7-19.5,6.3-28.8c3.6-9.2,8.6-18,14.6-25.9
	c6-7.9,13.1-15,21.1-21c7.9-5.9,16.7-10.8,26.1-13.7c-7.4,6.4-14.5,12.7-21.1,19.4c-6.6,6.7-12.7,13.7-18.4,21.1
	c-5.6,7.4-10.8,15.2-15.4,23.3C159,319.3,154.9,327.8,150.7,336.7z M122.8,383.4c0.2,0.1,0.4,0.2,0.5,0.3c0.4,4.9,1,9.7,1.9,14.5
	c-1.6-0.8-3.3-1.5-4.8-2.2C121.8,392.2,122.6,388,122.8,383.4z M233,365.6c5.2,1.9,9.7,5.9,12,11.3c2.1,4.7,2.5,10.3,1,16.1
	c-1-1.9-2.4-3.7-3.9-5.3c0.6-1.5,0.9-3.1,0.9-4.7c0-7.4-6-13.4-13.4-13.4c-5.3,0-9.8,3-12,7.4c-2.3-0.2-4.6-0.1-6.9,0.1
	c-1.7,0.2-3.4,0.5-5.1,0.9c2.6-5.3,6.4-9.2,10.9-11.5C221.8,364,227.8,363.7,233,365.6z M327.9,376.9c2.4-5.4,6.8-9.5,12-11.3
	c5.2-1.9,11.2-1.6,16.5,1c4.5,2.2,8.4,6.1,10.9,11.5c-1.7-0.4-3.4-0.7-5.1-0.9c-2.3-0.2-4.6-0.3-6.9-0.1c-2.2-4.4-6.7-7.4-12-7.4
	c-7.4,0-13.4,6-13.4,13.4c0,1.7,0.3,3.3,0.9,4.7c-1.5,1.6-2.8,3.3-3.9,5.3C325.3,387.2,325.8,381.6,327.9,376.9z M422.1,295.1
	c2.9,6.4,5.4,13,6.8,19.8l-10.9-17.6c-3.6-5.8-7.3-11.5-11.2-17.1c-3.9-5.6-7.9-11-12.2-16.3c-4.3-5.3-8.9-10.2-14-15.1
	c2.6,1.1,5,2.5,7.4,4c3.6,2.3,6.9,5,10,7.9c5.1,4.8,9.7,10.3,13.7,16.1c3.2,4.6,6,9.4,8.5,14.4C420.8,292.5,421.5,293.8,422.1,295.1
	z M361.6,422.4c-0.5-0.5-1.1-1-1.6-1.5c1.6-0.4,3.2-0.7,4.8-1.1c13.1-3.1,25.5-7,36.8-11.7c5.1-2.1,9.9-4.3,14.3-6.6
	c0.1,4.6,0.3,9.1,0.7,13.5c-3.7,4.1-6.2,8.8-7.4,14.2c-1.4,6.4-2.3,13.9-2.6,22.6c-7.4,8.2-15.7,15.6-24.8,22.2
	C383.7,449.3,373.8,433.9,361.6,422.4z M380.4,483.9c7.7-5.2,15-11,21.9-17.5c1.4-1.3,2.8-2.7,4.1-4c0,1.9,0,3.8,0.1,5.8
	c-8.6,10.4-18.5,19.7-29.5,27.6C378.4,492,379.6,488.1,380.4,483.9z M367.2,264.7c3.6,3.2,7.3,4.8,10.5,6.2
	c6.1,2.7,10.6,4.6,12.4,16.9c1.2,8,0.3,14.6-0.5,20c-1.1,8.1-2,15,6.3,19c4.8,2.3,10.4,2.8,15.8,3.3c5.5,0.5,9.7,1.1,12.5,2.6
	c-1.9,7.1-4.2,17.5-5.9,30c-1.1,7.8-1.9,16.5-2.2,25.7c0,0.8-0.1,1.6-0.1,2.4c-7.1,4-15.4,7.9-25,11.4c-11.8,4.4-25.4,8.2-40.5,11.1
	c-1.9-1.4-3.8-2.8-5.6-4.2c-4.6-3.4-9-6.6-12.6-10c-0.8-0.8-1.6-1.6-2.4-2.4c0.1-0.1,0.2-0.2,0.3-0.3c1.9-1.4,3.8-2.6,5.9-3.6
	c0.1,0,0.1,0,0.2-0.1c4-2,8.2-3.6,12.6-4.9c1.5-0.5,3.1-0.9,4.6-1.3c2.9-0.8,5.9-1.4,9-2c4.7-0.8,9.4-1.4,14.8-1.7
	c-2.4-2-5.2-3.4-8.2-4.3c0.2-2.8-0.3-5.8-1.3-8.6c-1-2.7-2.6-5.1-4.6-7.3c-0.8-0.8-1.6-1.6-2.5-2.3c-2.8-2.2-6.2-3.8-9.7-4.7
	c6.5-2.8,14-5,22-5c2.2,0,4.3,0.2,6.4,0.5c0.4,0.1,0.8-0.1,1.1-0.4c0.3-0.3,0.4-0.7,0.2-1.1c-0.2-0.7-5.8-18.2-18.2-20.2
	c-0.4-0.1-0.8-0.1-1.2-0.1c-7.4,0-18.8,10.4-29.9,20.5c-5.6,5.1-11.3,10.3-15.3,12.8c-1.3,0.8-2.4,1.3-3.3,1.5c-0.5,0.1-0.9,0.5-1,1
	c-0.1,0.5,0.2,1,0.6,1.2c0.2,0.1,4.1,2.2,9.8,2.2c0.2,0,0.5,0,0.7,0c-1,2-1.8,4.1-2.3,6.2c-0.8,4-0.6,8.2,0.6,11.9
	c-14.9-15.3-30.4-16.2-33.7-16.2c-0.2,0-0.4,0-0.5,0c-0.1,0-0.3,0-0.5,0c-3.5,0-20.3,1-35.9,18.5c0.3-0.7,0.7-1.5,0.9-2.2
	c1.2-3.7,1.5-7.9,0.6-11.9c-0.4-2.2-1.2-4.3-2.3-6.2c0.2,0,0.5,0,0.7,0c5.7,0,9.6-2.1,9.8-2.2c0.4-0.2,0.7-0.7,0.6-1.2
	c-0.1-0.5-0.5-0.9-1-1c-0.9-0.2-2-0.7-3.3-1.5c-4-2.5-9.7-7.7-15.3-12.8c-11-10.1-22.4-20.5-29.9-20.5c-0.4,0-0.8,0-1.2,0.1
	c-12.4,2-18,19.4-18.2,20.2c-0.1,0.4,0,0.8,0.2,1.1c0.3,0.3,0.7,0.5,1.1,0.4c2.1-0.3,4.3-0.5,6.4-0.5c8,0,15.5,2.2,22,5
	c-3.6,0.8-6.9,2.4-9.7,4.7c-0.9,0.7-1.7,1.5-2.5,2.3c-2,2.1-3.6,4.6-4.6,7.3c-1.1,2.8-1.5,5.8-1.3,8.6c-3,0.9-5.8,2.3-8.2,4.3
	c5.4,0.3,10.1,0.9,14.8,1.7c3.1,0.5,6,1.2,9,2c1.5,0.4,3.1,0.8,4.6,1.3c4.3,1.3,8.6,2.9,12.6,4.9c0.1,0,0.1,0,0.2,0.1
	c2,1,4,2.2,5.9,3.6c0.3,0.3,0.7,0.5,1,0.8c-0.7,0.7-1.4,1.4-2.2,2.1c-3.5,3.2-7.8,6.4-12.3,9.6c-1.8,1.3-3.7,2.7-5.6,4.2
	c-23.4-4.5-43.3-11.2-58.5-18.7c-4-2-7.7-4-11-6.1c-2.9-1.8-5.6-3.7-8-5.5c5.5-8.3,14.1-14.9,23.7-18.8c0.9-0.4,1.9-0.7,2.9-1.1
	c0.3-0.1,0.5-0.2,0.8-0.3c5.7-2.2,12.5-5,14.8-12c2-6.2,1.2-12.4,0.4-18.5c-0.8-6.2-1.6-12,0.6-17.6c3.3-8.3,9-14.7,15.6-17.7
	c2.9-1.3,6.1-1.9,9.8-1.9c3.6,0,7.2,0.5,11,1.1c3.8,0.6,7.7,1.1,11.7,1.1c3.9,0,7.4-0.6,10.6-1.8c23.2-8.9,18.7-31.1,15-48.8
	l-0.4-1.9c-1.9-9.6-1.6-18.9,1.2-27.7c7.6-1.1,15.3-1.7,23.2-1.7c27.3,0,53,7.1,75.3,19.6C360.9,250.8,362.5,260.6,367.2,264.7z
	 M239.8,527.2c-6-3-11.8-6.7-17-11.3c-3.3-2.9-6.3-6.2-9-9.8c-3.3-4.4-6-9.3-8-14.9c-0.1-0.2-0.2-0.5-0.3-0.7
	c-0.5-1.5-1-3.1-1.5-4.7c-0.4-1.5-0.8-3-1.1-4.6c0-0.1,0-0.2-0.1-0.3c-0.1-0.5-0.2-0.9-0.2-1.4c-0.2-1.1-0.4-2.3-0.5-3.4
	c-1.3-11.5,0.2-20.6,3.4-28.2c1.1-2.7,2.5-5.2,4.1-7.5c0.9-1.4,1.9-2.7,2.9-4c1-1.2,2.1-2.5,3.2-3.6c3.2-3.4,6.8-6.5,10.5-9.4
	c1.7-1.4,3.5-2.7,5.2-4c1.2-0.9,2.3-1.7,3.5-2.6c0.6-0.4,1.2-0.9,1.8-1.3c6.9-5.1,13.2-10,17.6-15.8c13.8-18.7,29.3-19.6,32.2-19.6
	c0.2,0,0.3,0,0.3,0c0.1,0,0.3,0,0.5,0c0,0,0.1,0,0.3,0c3,0,18.4,0.9,32.2,19.6c4.4,5.9,10.7,10.8,17.6,15.8c0.6,0.4,1.2,0.9,1.8,1.3
	c1.2,0.9,2.3,1.7,3.5,2.6c1.8,1.3,3.5,2.6,5.2,4c2.2,1.7,4.4,3.5,6.4,5.4C366,439.4,374.6,453,372,476c-0.2,1.8-0.5,3.5-0.8,5.2
	c-0.7,3.6-1.6,6.9-2.8,10.1c-0.1,0.4-0.3,0.7-0.4,1.1c-2,5.1-4.6,9.7-7.6,13.8c-2.7,3.6-5.7,6.9-9,9.8c-5.2,4.6-11,8.3-16.9,11.3
	c-17.5,8.8-36.7,11.5-47.3,11.5l0,4.8v-4.8C276.5,538.8,257.3,536.1,239.8,527.2z M287.1,528c-2.7,0.7-5.6,1-8.4,1.2
	c-1.5,0.1-3,0.1-4.4,0.1c-4.3-0.1-8.6-0.5-12.9-1.4c-2.7-0.5-5.4-1.2-8-2.1c-5.7-1.8-11.2-4.3-16.4-7.6c-1.8-1.2-3.6-2.5-5.3-3.9
	c-5.2-4.3-9.8-9.6-12.9-15.6c-0.2-0.4-0.4-0.8-0.6-1.2c-1.5-3.1-2.7-6.4-3.5-9.8c-0.3-1.1-0.5-2.2-0.6-3.3c-0.3-2-0.5-4-0.5-6
	c0-1.3,0.1-2.6,0.2-3.9c0-0.4,0.1-0.9,0.1-1.3c0.1,0.3,0.3,0.7,0.4,1c0.3,0.8,0.6,1.7,0.9,2.5c0.6,1.6,1.3,3.2,2,4.8
	c1.6,3.6,3.5,6.9,5.6,10c0.7,1.1,1.5,2.1,2.3,3.2c2.5,3.2,5.3,6.1,8.3,8.8c2.7,2.4,5.7,4.6,8.8,6.6c6.5,4.2,13.7,7.6,21.2,10.5
	c3.1,1.2,6.3,2.3,9.5,3.3C277.6,525.4,282.2,526.8,287.1,528z M271.6,397.1c-5.2,2.4-10.1,5.7-15.4,9.5c2.1-6.2,6.1-11.7,11.4-15.9
	c2.7-2.1,5.7-3.8,8.9-5.1c3.3-1.2,6.8-2,10.5-2c3.8,0,7.3,0.8,10.5,2c3.3,1.3,6.3,3,8.9,5.1c5.3,4.2,9.3,9.7,11.4,15.9
	c-5.3-3.8-10.2-7.1-15.4-9.5c-2.6-1.2-5.2-2.1-7.8-2.8c-1.3-0.3-2.6-0.6-3.9-0.8c-0.6-0.1-1.3-0.2-1.9-0.2c-0.3,0-0.6,0-0.9-0.1
	l-0.4,0l-0.5,0l-0.5,0l-0.4,0c-0.3,0-0.6,0-0.9,0.1c-0.6,0-1.3,0.1-1.9,0.2c-1.3,0.2-2.6,0.5-3.9,0.8
	C276.8,394.9,274.2,395.9,271.6,397.1z M357.6,266c1.3,1.7,2.8,3.4,4.4,5.3c1.6,1.9,3.5,3.7,5.4,6.3c-3.1,0.8-6.2,0.3-9.1-0.8
	c-2.9-1.2-5.5-3.1-7.4-5.7c-2-2.6-3.2-5.7-3.4-8.8c-0.2-3.1,0.4-6.4,2.5-8.9c1.4,2.8,2.6,5.1,3.9,7.1
	C355,262.5,356.2,264.3,357.6,266z M280.5,271c1.4,4.5,1.2,9.2,0.4,13.8c-0.9,4.5-2.8,9-5.6,12.9c-2.8,3.9-6.7,7.2-11.1,9.2
	c-4.4,1.9-9.3,2.6-13.9,1.5c4-2.4,7.5-4.6,10.4-7.2c3-2.5,5.5-5.4,7.8-8.5c2.3-3.1,4.3-6.5,6.2-10.2
	C276.6,278.9,278.4,275.1,280.5,271z M443.5,339.1c-0.2,0-0.4-0.1-0.6-0.1c-0.6-0.1-1.3,0-1.8,0.3c-0.5,0.3-1,0.9-1.1,1.6
	c-0.2,0.8-0.4,1.6-0.6,2.5c-0.3,1.3-0.6,2.8-0.9,4.3c-0.2,0.9-0.4,1.9-0.6,2.8c-0.2,0.9-0.3,1.8-0.5,2.7c-0.5,2.9-1,6.1-1.5,9.4
	c-0.6,4.4-1.1,9.2-1.5,14.2c-0.1,0.8-0.1,1.7-0.2,2.5c-0.1,1.4-0.2,2.9-0.2,4.4c-0.1,2.1-0.2,4.2-0.2,6.4c0,1.6,0,3.3,0,5
	c0,3,0.1,5.9,0.2,8.9c0,0.8,0.1,1.7,0.1,2.5c0,0.3,0,0.6,0.1,1c0,0.5,0.1,1,0.1,1.6c0.1,2.1,0.3,4.2,0.5,6.3
	c0.2,1.9,0.4,3.8,0.6,5.7c0,0.2,0.1,0.4,0.1,0.6c0.2,1.5,0.4,3,0.6,4.5c0,0,0,0,0,0c0.2,1.5,0.5,3.1,0.7,4.6
	c0.3,1.4,0.5,2.9,0.8,4.3c1.5,7.4,3.3,14.6,5.6,21.5c2.6,7.8,5.7,15.3,9.3,22.3c5.8,11.4,12.9,21.8,21.2,31c0.5,0.5,1.2,0.8,1.9,0.8
	c0.2,0,0.4,0,0.6-0.1c19.2-5,36.8-13.7,52.4-25.7c13.2-10.1,25.1-22.8,35.5-37.7c10.2-14.7,17-28.5,20.8-37.6c0.4-1,0.2-2.1-0.6-2.8
	c-23.6-21.6-42.4-49.7-51.6-64.6c-0.5-0.8-1.5-1.3-2.5-1.2c-8,1.1-20.9,2.5-37.1,2.5c0,0,0,0,0,0c-15.3,0-30.4-1.2-44.9-3.6
	c-0.8-0.1-1.7-0.3-2.5-0.4C445.2,339.4,444.4,339.3,443.5,339.1C443.6,339.1,443.6,339.1,443.5,339.1z M493,469.4
	c-7.9-2.7-14.6-7.5-19.8-13.8c-11.8-14.1-16.2-35.4-9.1-55.4c3-8.4,7.5-15.3,13.1-20.7c13.2-12.8,32-16.5,48.5-8.4
	c22.1,10.9,32.6,39.5,24.6,65.1C542.1,462.3,516.9,477.6,493,469.4z M506.2,353.9c6-0.5,12.1-1.3,18.3-2.3c-5.3,3.4-11.4,5.6-17.6,7
	c-6.2,1.4-12.6,2-18.9,1.8c-6.3-0.1-12.6-0.9-18.8-2.3c-6.1-1.5-12.2-3.4-17.7-6.5c6.3,0.7,12.4,1.3,18.4,1.9
	c6.1,0.5,12.1,0.9,18.2,1C494.2,354.5,500.2,354.3,506.2,353.9z M35.9,351.7c-4,0.7-8,1.9-12.1,3.9c2.1-4.2,6.1-7.3,10.4-9.3
	c4.4-2,9.3-2.7,14.1-2.4c4.8,0.3,9.4,1.6,13.6,3.6c4.2,2,8,4.7,11.1,8.2c-4.6-0.9-8.8-2-12.9-2.8c-4.1-0.9-8.2-1.5-12.2-1.8
	C43.8,350.8,39.9,350.9,35.9,351.7z"/>
</svg>
