<?xml version="1.0" encoding="utf-8"?>
<!-- Generator: Adobe Illustrator 19.0.0, SVG Export Plug-In . SVG Version: 6.00 Build 0)  -->
<svg version="1.1" id="Layer_1" xmlns="http://www.w3.org/2000/svg" xmlns:xlink="http://www.w3.org/1999/xlink" x="0px" y="0px"
	 width="600px" height="600px" viewBox="0 0 600 600" style="enable-background:new 0 0 600 600;" xml:space="preserve">
<style type="text/css">
	.st0{fill:#009382;}
</style>
<path id="color_x5F_1_1_" class="st0" d="M207.6,338.6l2,27.4l-6.2-3l2-24.4C205.6,337.2,207.5,337.2,207.6,338.6z M576.4,181
	l-49.1,22.7v291.1L300,600L72.7,494.9V203.8L23.6,181l111.9-73.3V35h81.8v19.2L300,0L576.4,181z M118.7,423.3l-11.8-4.6v40.5
	l11.8,4.6V423.3z M118.7,390.2l-11.8-4.6v26.2l11.8,4.6V390.2z M129.1,329.5c0-6.5-2-15.5-6-26.9c-4-11.5-6-19.1-6-22.8
	c-0.1-2.1,0.5-3.8,2-5.2c2.2-1.7,5.6-0.1,7.2,1.6l3-22.2c-2.2-1.8-4.5-3.3-6.8-4.4c-6.8-3.3-12.6-3-17.2,0.8
	c-4.6,3.8-6.9,10.5-6.9,20.1c0,6.5,2,15.7,6.1,27.4c4,11.7,6.1,19,6.1,22c0,2.4-0.5,4.4-2,5c-3.1,1.2-6.6-1-7.3-1.7l-2.8,22.3
	c2.3,1.9,4.5,3.3,6.5,4.2c6.7,3.3,12.4,3.1,17.1-0.5C126.7,345.4,129.1,338.9,129.1,329.5z M136.5,430.2l-11.8-4.6v40.5l11.8,4.6
	V430.2z M136.5,397.1l-11.8-4.6v26.2l11.8,4.6V397.1z M145.5,288.5v79.6l18.8,9.1v-79.6l11.8,5.7v-26.5l-42.3-20.5v26.5L145.5,288.5
	z M180,399.3l-28.2-13.7v26.5l4.7,2.3v53.1l-4.7-2.3v26.5l28.2,13.7V479l-4.7-2.3v-53.1l4.7,2.3V399.3z M228.8,423l-18.8-9.1v28.4
	c0,1.3-1.9,1.5-2.1,0.2l-6.3-32.7l-15-7.3v106.2l18.8,9.1v-28.5c0-1.3,1.9-1.5,2.1-0.2l6.3,32.8l15,7.3V423z M232.9,410.4l-15-113.4
	L195.3,286l-15,98.9l20.7,10l1-12.8l9.2,4.5l1,13.8L232.9,410.4z M256.5,487.2l-11.8-4.6v40.5l11.8,4.6V487.2z M256.5,454.1
	l-11.8-4.6v26.2l11.8,4.6V454.1z M274.3,494l-11.8-4.6v40.5l11.8,4.6V494z M274.3,460.9l-11.8-4.6v26.2l11.8,4.6V460.9z
	 M283.8,328.9l-20.7-10l-3.8,30.1c-0.1,1-1.6,1-1.8,0l-3.9-34.7l-20.5-10l16.3,76.5l-9.9,32.8l18.8,9.1L283.8,328.9z M507.2,413.3
	c-2.4,8.2-8.3,18.1-22,33.7c0.4,2.2,1.7,6.1,6.4,4.1c3.8-1.6,8.5-10.9,8.5-10.9s3.5-0.6,4.2-0.2c0.7,0.5,1.5,1.4,1.5,3.5
	c0,7.8-9.6,20.1-18.6,23.9c-2.4,1-13.7,4.4-15.2-4c-4.9,3.3-9.8,4.1-13.3,2.2l-2,12.8c-2.9,15.1-4.1,24.2-7.5,30.4l57.9-26.8V413.3z
	 M497.3,406.7c0,0-10.4,1.4-12.1,29.6C504.9,408.9,497.4,406.8,497.3,406.7z M507.2,220L345.1,295c3.3-0.3,5.6,0.5,7.1,1.6
	c3.5,2.3,5.5,6.9,5.5,12.7c0,6.5-2.8,14.8-8.9,17.3c-1.1,0.5-2.9,0.7-4.6-0.1c-1-0.5-2.4-1.4-3.1-3.5c0,0,8-17.4,1-17.1
	c-6.2,0.3-8.3,11.1-8.3,18.1c0,8.1,4.2,11.4,9,15.4c5.4,4.4,11.6,9.4,11.6,21.6c0,19.5-10.8,37.2-26.9,43.9c-3.1,1.3-5.8,1.8-8,1.8
	c-3.1,0-5.4-1-7-2c-2.3-1.5-4.1-3.8-5.3-6.8v57.7l35-17.2v16.3l-35,17.2v27.2l18.7-9.2v14.4l-18.7,9.2v29.7l34-16.7v16.3l-34,16.7
	v15.1L429.5,518c-4.6-2-5.6-6.5-5.5-10.8c0.1-7,5.9-6.9,5.9-6.9s8.1,10.1,12.4-17.5c0,0-6.9,6.4-10.2,7.8c-3.8,1.6-6.3,0.9-7.6-0.1
	c-1.5-1-2.5-2.7-3.1-5c-3.3,6.4-7.9,12.9-13.4,15.2c-1.6,0.7-3.1,1-4.4,1c-1.5,0-2.9-0.4-4.2-1.2c-5-3.3-5.8-12.4-5.8-17.6
	c0-21.7,10.6-50.3,25.7-56.7c4.1-1.7,7.5-2,10.2-0.7c1.7-2.7,4.1-4.8,6.7-5.9c2.1-0.9,6.9,0.2,6.9,0.2s-7,53.4-6.9,53.4
	c0,0,6.6-4.7,9-8.1l6.2-40.5c0,0-5.9,1.8-5.8,0.3c1-9.7,7.5-11.7,7.5-11.7s3.3-32,22-40.5c4.8-2.2,8.5-2.2,11-0.6
	c2.4,1.6,3.5,4.6,3.5,9.2c0,8.4-4,13.5-7.9,14.9c-1.8,0.6-6.2-0.8-6.2-0.8s6-14.1,1.7-10.9c-4.3,3.2,0,0,0,0
	c-7.7,2.3-9.3,22.5-9.3,22.5l6.9-2.9c0,0-1.3,11.2-4.8,12.7l-3.9,1.6l-5.8,37.7c5.9,1.7,7.8-0.7,9.5-3.7c0-0.3,3.7-48.4,25.5-58.2
	c4-1.8,7.3-1.8,9.7-0.2c0.9,0.6,1.7,1.5,2.3,2.6v-50.6l-14.8,7.3V339l14.8-7.3v-31.1l-13.9,6.8v-14.4l13.9-6.8v-39.5l-31.1,15.3
	v-18.2l31.1-15.3V220z M423.9,437.1c-11.2,4.7-15.2,26.3-15.2,39.7c0,4.4,1.1,5.5,1.5,5.7c0.4,0.3,1,0.2,1.8-0.1
	c2.7-1.2,6.6-6,9.1-11.3l5.2-34.7C425.5,436.6,424.8,436.8,423.9,437.1z M318,331.6c0-12,5.8-23.8,14.5-30.8l-25.3,11.7v63.4
	c2.4-7.5,7.2-14.6,14.7-17.7c2-0.9,4.2-0.7,5.8,0.3c1.8,1.2,2.8,3.4,2.8,6.3c0,1.5-1.1,5.9-1.1,5.9l-1.2,0c0,0-4.4,1.3-5.5,2.4
	c-2.6,2.6-4.3,6.9-4.3,11c0,3.7,1.1,6.7,3,7.9c1.4,0.9,3.1,0.9,5.3,0c8.1-3.4,11-13.7,11-21.5c0-9.3-4.1-12.8-8.8-16.8
	C323.8,349.4,318,344.6,318,331.6z M535.1,178L300,24v262.7L535.1,178z M358.1,333.7c-0.7-11.2,6.9-13.1,6.9-13.1l1.6-10.5
	c0.9-5.9,4.4-10.7,9.2-12.7c2.1-0.9,4.2-1,5.8-0.3l1,0.5l-2.5,16.6l6.5-2.7c0,0-1.3,11.2-4.8,12.7l-3.6,1.5c0,0-5.6,44.6-5.6,44.6
	c0,0,6.9-5,9.2-8.5c-0.1-1.3-0.1-2.5-0.1-3.6c0-21.7,10.6-50.3,25.7-56.7c4.1-1.7,7.5-2,10.2-0.7c1.7-2.7,4.1-4.8,6.7-5.9
	c2.1-0.9,6.9,0.2,6.9,0.2l-7.1,46.6c-0.9,6,0.4,6.9,0.9,6.7c2.7-1.1,6-4.6,8.3-8.1c0.1-2.3,4.6-34.1,4.6-34.1s-2.7-1.6-3-2.8
	c-0.5-1.7-0.5-4.5,1.2-7c2.9-4.2,6.8-9.3,11.7-11.3c2.2-0.9,4-0.9,5.3,0.1c1.5,1.2,2,3.3,1.5,6.6c0,0-6.1,43.7-5.9,43.9
	c0.1,0.1,5.5-3.4,7.8-7.2l6.4-40.9c0.9-5.9,4.4-10.7,9.2-12.7c2.1-0.9,6.9,0.2,6.9,0.2l-8.5,55.6c-0.2,1.4-0.5,2.8-0.7,4.2
	c0.5-0.3,1.1-0.5,1.6-0.7c2.5-1.1,4.2-0.1,4.9,0.5c2,1.7,2.6,5.3,1.6,9.5c0,0-6.9,2.6-10.5,4.6c-4.3,23.3-11.6,50.7-29.4,58.2
	c-1.4,0.6-2.7,0.8-3.9,0.8c-1.5,0-2.9-0.4-4.1-1.2c-2.1-1.4-4.6-4.7-4.6-12.4c-0.2-20.1,19.8-38.8,19.4-38.7
	c-3.2,1.3-5.8,1.2-7.7-0.3c-1.1-0.8-1.9-2.1-2.5-3.7c-4.2,6.4-9.5,12.4-14.1,14.4c-3.8,1.6-6.3,0.9-7.6-0.1c-1.5-1-2.5-2.7-3.1-5
	c-3.3,6.4-7.9,12.9-13.4,15.2c-1.6,0.7-3.1,1-4.4,1c-1.5,0-2.9-0.4-4.2-1.2c-1.6-1-2.7-2.6-3.6-4.5c-4.5,7.2-10.9,14.5-17,17
	c-1.4,0.6-2.7,0.9-3.9,0.9c-1.3,0-2.5-0.4-3.5-1.1c-3-2.3-3.8-7.9-2.4-17.2l5.9-38.9L358.1,333.7z M435,389.7c0,1.4,0.3,2.5,0.9,2.8
	c0.4,0.2,0.8,0.2,1,0.1c5.5-2.3,9.2-10.5,13.9-30.6C441.4,372,435,382.9,435,389.7z M398.6,357.8c0.4,0.3,6.3-0.2,10.8-11.4
	l5.2-34.7c-0.7,0.1-16.5,6.6-17.5,40.4C397,356.5,398.2,357.6,398.6,357.8z M388.6,410.9c-2.3-1.5-6.3-2.7-12.6-0.1
	c-12.6,5.3-21.7,20.1-21.7,35.2c0,12.9,5.8,17.8,10.9,22.1c4.7,4,8.8,7.5,8.8,16.8c0,7.8-2.9,18-11,21.5c-5.6,2.5-8.3-4.2-8.3-7.9
	c0-4.1,1.7-8.4,4.3-11c1.1-1.1,6.6-2.4,6.6-2.4s2.5-7.7-1.7-12.2c-1.3-1.4-3.7-1.2-5.8-0.3c-11.4,4.8-16.6,18.5-16.6,29.3
	c0,7.9,2.6,14.1,7.2,17.2c1.6,1.1,3.9,2,7,2c2.2,0,4.9-0.5,8-1.8c16.1-6.8,26.9-24.4,26.9-43.9c0-12.3-6.1-17.3-11.6-21.6
	c-4.8-3.9-9-7.3-9-15.4c0-7,2.6-15.7,8.3-18.1c1.1-0.5,3.9,2.2,3.9,4.3c0.1,7.9-4.9,12.8-4.9,12.8c0.7,2.1,6.6,4.1,7.7,3.6
	c6.1-2.6,8.9-10.8,8.9-17.3C394,417.9,392,413.2,388.6,410.9z M358.7,110.4c-16.1,10.7-23.1,33.2-17.3,55.3l33.9-14.5L358.7,110.4z
	 M421.9,131.2c-11.3-19.8-31.8-30.5-50.6-26.3l16.6,40.8L421.9,131.2z M347.6,180.9c11.3,19.8,31.8,30.5,50.6,26.3l-16.6-40.8
	L347.6,180.9z M428.1,146.4l-33.9,14.5l16.6,40.8C426.9,191,434,168.5,428.1,146.4z"/>
</svg>
