<?xml version="1.0" encoding="utf-8"?>
<!-- Generator: Adobe Illustrator 19.0.0, SVG Export Plug-In . SVG Version: 6.00 Build 0)  -->
<svg version="1.1" id="Layer_1" xmlns="http://www.w3.org/2000/svg" xmlns:xlink="http://www.w3.org/1999/xlink" x="0px" y="0px"
	 width="600px" height="600px" viewBox="0 0 600 600" style="enable-background:new 0 0 600 600;" xml:space="preserve">
<style type="text/css">
	.st0{fill:#007665;}
	.st1{fill:#8CD1C7;}
</style>
<path id="color_x5F_2" class="st0" d="M573.8,442.1c8.6-16.4,8.3-33.5-0.6-38.1c-1.9-1-4.1-1.4-6.4-1.1c0,0-19.4-0.8-38.6-5.9
	c8.5-18.9,14.6-39,18.1-60.1c15.5,5.5,28,12.5,28,12.5c1.8,1.4,3.8,2.2,5.9,2.4c9.8,0.7,18.8-13.3,20.1-31.3
	c1.3-18-5.6-33.1-15.4-33.8c-2.1-0.1-4.2,0.4-6.2,1.5c0,0-13.1,5.1-28.9,8.3c0-0.3,0-0.7,0-1c0-18-1.9-35.5-5.6-52.4
	c18.9-1.3,36.7,1.2,36.7,1.2c2.2,0.6,4.4,0.7,6.5,0c9.6-3,12.9-19.8,7.4-37.4c-5.5-17.6-17.8-29.5-27.4-26.5
	c-2.1,0.7-3.9,1.9-5.3,3.7c0,0-13,11.9-29,21.6c-7.6-19.6-17.6-38.1-29.7-55c13.9-6.3,26.2-9.8,26.3-9.8c2.2-0.3,4.2-1.1,5.8-2.5
	c7.4-6.4,3.9-22.7-7.9-36.3c-11.8-13.6-27.4-19.4-34.8-13c-1.6,1.4-2.7,3.2-3.3,5.4c0,0-5.1,11.6-13.2,24.2
	c-12.6-12.5-26.5-23.8-41.6-33.4C446.7,72,459.9,62,459.9,62c2-1.1,3.6-2.6,4.6-4.6c4.7-8.9-4.8-23.1-21.2-31.7
	c-16.4-8.6-33.5-8.3-38.1,0.6c-1,1.9-1.4,4.1-1.1,6.4c0,0-0.7,16.4-4.8,33.9c-18.8-8.2-38.9-14.1-59.8-17.4c5.2-13.6,11-24,11.1-24
	c1.4-1.8,2.2-3.8,2.4-5.9c0.7-9.8-13.3-18.8-31.3-20c-18-1.3-33.1,5.6-33.8,15.4c-0.1,2.1,0.4,4.2,1.5,6.2c0,0,4.3,11.1,7.5,25.2
	c-17.5,0.2-35.1,2.2-52.7,6.2c-0.8-17.7,1.4-33.6,1.4-33.6c0.6-2.2,0.7-4.4,0-6.5c-3-9.6-19.8-12.9-37.4-7.4
	c-17.6,5.5-29.5,17.8-26.5,27.4c0.7,2.1,1.9,3.9,3.7,5.3c0,0,10.9,11.8,20.3,26.8c-19.7,7.9-37.9,18.2-54.3,30.3
	c-5.9-13.2-9.1-24.6-9.1-24.6c-0.3-2.2-1.1-4.2-2.5-5.8c-6.4-7.4-22.7-3.9-36.3,7.9c-13.6,11.8-19.4,27.4-13,34.8
	c1.4,1.6,3.2,2.7,5.4,3.3c0,0,11,4.9,23.3,12.6c-12.4,12.9-23.3,27-32.5,42.1c-13.4-12.1-23.4-25.2-23.4-25.3
	c-1.1-2-2.6-3.6-4.6-4.6c-8.9-4.7-23.1,4.8-31.7,21.2c-8.6,16.4-8.3,33.5,0.7,38.1c1.9,1,4.1,1.4,6.4,1.1c0,0,16.8,0.7,34.5,4.9
	c-8,19.2-13.6,39.4-16.6,60.2c-14.3-5.3-25.5-11.6-25.5-11.6c-1.8-1.4-3.8-2.2-5.9-2.4c-9.8-0.7-18.8,13.3-20.1,31.3
	c-1.3,18,5.6,33.1,15.4,33.8c2.1,0.2,4.2-0.4,6.2-1.5c0,0,12.3-4.7,27.4-8c0.4,17.6,2.8,35.4,7.1,53.1c-18.9,1.3-36.7-1.2-36.7-1.2
	c-2.2-0.6-4.4-0.7-6.5,0c-9.6,3-12.9,19.8-7.4,37.4c5.5,17.6,17.8,29.5,27.4,26.5c2.1-0.6,3.9-1.9,5.3-3.7c0,0,13.5-12.4,29.9-22.2
	c8.2,19.8,18.7,38,31.1,54.4c-14.8,7-28.6,10.9-28.6,10.9c-2.2,0.3-4.2,1.1-5.8,2.5c-7.4,6.4-3.9,22.7,7.9,36.3
	c11.8,13.6,27.4,19.4,34.8,13c1.6-1.4,2.7-3.2,3.3-5.4c0,0,5.9-13.4,15.2-27.2c13.1,12.5,27.4,23.5,42.7,32.8
	c-12.8,15.2-28.4,27-28.4,27c-2,1.1-3.6,2.6-4.6,4.6c-4.7,8.9,4.8,23.1,21.2,31.7c16.4,8.6,33.5,8.3,38.1-0.7c1-1.9,1.4-4.1,1.1-6.4
	c0,0,0.8-19.8,6.1-39.1c19.3,8.1,39.6,13.8,60.5,16.9c-5.6,16.3-13.1,29.8-13.1,29.8c-1.4,1.8-2.2,3.8-2.4,5.9
	C247,588.7,261,597.7,279,599c18,1.3,33.1-5.6,33.8-15.4c0.2-2.1-0.4-4.2-1.5-6.2c0,0-5.6-14.6-8.8-31.5c17.8-0.2,35.7-2.4,53.6-6.5
	c1.9,20.2-0.9,40.3-0.9,40.3c-0.6,2.2-0.7,4.4,0,6.5c3,9.6,19.8,12.9,37.4,7.4c17.6-5.5,29.5-17.8,26.5-27.4
	c-0.6-2.1-1.9-3.9-3.7-5.3c0,0-13.8-15-23.7-32.6c20-7.9,38.4-18.1,55.1-30.3c7.6,15.5,11.8,30.5,11.8,30.5c0.3,2.2,1.1,4.2,2.5,5.8
	c6.4,7.4,22.7,3.9,36.3-7.9c13.6-11.8,19.4-27.4,13-34.8c-1.4-1.6-3.2-2.7-5.4-3.3c0,0-14.2-6.3-28.4-15.9
	c12.7-12.8,23.9-26.8,33.5-41.8c0.1-0.1,0.2-0.2,0.2-0.3c15.3,12.9,27.3,28.6,27.3,28.6c1.1,2,2.6,3.6,4.6,4.6
	C551,468,565.2,458.5,573.8,442.1z M136.6,170.9c-8.6,11.2-16.4,23-23.5,35.4c-7.1,12.4-13.4,25.3-19.8,38.8
	c0.5-12.8,3.2-25.6,7.4-37.8c0.7-2,1.4-3.9,2.2-5.9c2.3-5.8,4.9-11.5,7.9-17c4.2-7.8,9-15.3,14.3-22.3c5.5-7.2,11.5-13.9,18.1-20.1
	c4.4-4.2,9.1-8.1,13.9-11.7c3.6-2.7,7.4-5.3,11.3-7.7c8.9-5.5,18.3-10.1,28.3-13.2c-11.3,9.8-22,19.3-32.1,29.5
	C154.5,149,145.2,159.7,136.6,170.9z M256.1,387.9c0.6-3.6,1.8-7.4,3.9-10.8c2.1-3.4,4.9-6.2,8-8.5c3.1-2.2,6.3-3.9,9.6-5.3
	c2.9-1.2,5.7-2.6,8.3-4.2c2.6-1.6,5.1-3.5,7.3-5.8c2.2-2.3,4.2-4.9,5.5-8.1c0.4,1.7,0.2,3.6-0.1,5.4c-0.3,1.8-0.9,3.6-1.7,5.2
	c-1.6,3.4-3.9,6.4-6.6,8.9c-2.7,2.6-5.8,4.6-9,6.4c-2.8,1.5-5.5,3.1-7.9,4.9c-2.4,1.8-4.5,3.7-6.2,6c-1.7,2.2-3,4.9-4.2,7.8
	c-2.2,5.9-3.5,12.6-5.7,19.3C255.8,402.1,255,395.2,256.1,387.9z M300.4,530.3c-0.5,0-1,0-1.4,0c-2.6-7.8-6.2-14.3-10.4-19.8
	c-19.3-25.1-52.3-27.8-73.9-29.5c-5.3-0.4-9.8-0.8-13.4-1.4c-12.2-2.1-14.2-8.2-17.4-18.3c-2.8-8.6-6.3-19.4-17.9-29.5
	c-6.7-5.9-15.4-8.9-25.7-8.9c-11.4,0-22.9,3.6-31.9,7.4c-9.2-13.1-17.1-27.2-23.6-42c0.1-1.5,0-2.9,0-4.4c-0.2-6.1-1.4-12-3.5-17.4
	c-2-5-3.2-9.9-3.7-14.7c-3.4-29.1,17.5-53.7,43.9-64.8c6.8-2.2,14.5-3.5,21.9-3.5c9.3,0,31.4,2.2,37.3,22.3
	c4.7,16.2,12.1,28,18,35.5c1.9,2.7,4.1,5.3,6.6,8.1l0.6,0.6c4.3,4.8,10.2,11.4,11.9,17.2c1.7,5.7,2.3,11.6,2.9,17.8
	c0.4,3.8,0.8,7.7,1.4,11.6c1.5,8.6,4.5,17.7,9.4,28c4.7,9.9,10.1,19.8,20.1,23.4c1.7,0.6,3.3,0.9,4.8,0.9c0,0,0,0,0,0
	c7.6,0,13.1-6.5,16.3-19.3c1.4-5.4,2.1-10.9,2.8-16.2c0.4-3.2,0.9-6.4,1.4-9.6l0.1-0.8c0.8-4.7,1.7-9.5,3.5-13.7
	c2-4.6,6.6-7.3,11.5-10.1c1.3-0.8,2.7-1.6,3.9-2.4c7-4.4,14.7-10.1,19.4-18.8c2.5-4.7,10.3-21.1,3-33.2
	c-5.2-8.8-14.6-12.5-22.9-15.3c-5.3-1.8-10.8-3.7-14.9-6.5c-2.5-1.7-4.7-3.8-7.1-7c-1.2-1.6-2.4-3.2-3.6-5c-1-1.4-2-2.9-3-4.3
	c-9.5-12.9-24.5-20.9-39-20.9c-2.3,0-4.6,0.2-6.8,0.6c-6.1,0.7-12,2.3-17.6,3.8c-7,1.9-13.7,3.8-20.5,3.8c-3.5,0-6.7-0.5-9.9-1.5
	c-12.7-4-18.6-18.8-21.3-29.8c-0.2-1.5-0.4-3.1-0.6-4.6c-1.2-9.4-2.4-18.3,0.9-26.7c5-12.6,13.6-22.4,23.7-26.8
	c4.4-2,9.2-2.9,14.9-2.9c5.4,0,10.9,0.8,16.7,1.7c5.8,0.9,11.7,1.7,17.7,1.7c6,0,11.2-0.9,16.1-2.8c35.2-13.6,28.3-47.2,22.8-74.1
	l-0.6-2.8c-3-14.6-2.4-28.7,1.8-42c11.2-1.7,22.7-2.6,34.4-2.6c0.3,0,0.5,0,0.8,0c11.8,0,23.3,0.9,34.6,2.6
	c21.1,3.1,41.4,9.1,60.3,17.5c6.6,2.9,13.1,6.2,19.3,9.7c-0.6,7.3-0.9,13.7-0.7,19.3c0.4,13.1,3.1,21.7,8,26.1
	c5.5,4.9,11,7.3,15.9,9.4c9.3,4,16,6.9,18.8,25.7c1.2,8.1,0.3,16-0.7,24.4c-0.2,2-0.5,3.9-0.7,5.9c-1,9.6-0.8,21.5,9.3,27.6
	c5.7,3.4,12.1,4.6,18.3,5.8c7.2,1.4,13.9,2.7,19,7.1c3.4,3,4.7,6.8,3.9,10.7c-1,4.5-4.7,8.2-9.6,9.7c-11.2,3.4-23,4-35.4,4.6
	c-10.1,0.5-20.6,1-30.7,3.2c-7,1.5-17.1,4.3-23.6,11.3c-14.1,14.9-6.9,29.5-0.4,42.4c4.3,8.6,8.3,16.8,6.6,24.7
	c-1.6,7.3-5.6,14.6-9.5,21.7c-7.7,14-15.6,28.4-3.8,41.5c4.2,4.7,10,7.1,17.1,7.1c5.5,0,11.1-1.4,16.1-2.6c3.7-0.9,7.2-1.8,9.6-1.8
	c1.1,0,1.9,0.2,2.2,0.5c0.2,0.2,0.7,0.9,0.7,3.3c-0.1,4-1.2,10.4-2.6,17.7c-1.3,7-2.8,15.1-3.7,23.5c-0.9,8.1-1.2,16.4-0.3,24.1
	c0.1,0.6,0.1,1.3,0.2,1.9c-16.4,12-34.3,21.8-53.5,29.3c-10.1,3.9-20.6,7.2-31.4,9.7c-17.1,4-34.9,6.1-53.1,6.1
	C300.5,530.3,300.4,530.3,300.4,530.3z M449,296.7c-5.3,0.4-10.6,0.8-16.2,0.9c4.4-3.7,9.5-6.1,14.8-7.9c5.3-1.8,10.7-2.9,16.3-3.4
	c5.5-0.5,11.1-0.4,16.6,0.4c5.5,0.9,10.9,2.3,16,5c-5.6,1.1-10.9,1.6-16.2,2.1l-15.6,1.5L449,296.7z M469.7,146.4
	c-2.5-3-5.1-6-7.7-9c-4.3-4.8-8.7-9.4-13.5-14c6,2.6,11.7,6.1,17,10.1c3.3,2.5,6.4,5.2,9.4,8c5.4,5.1,10.3,10.6,14.8,16.4
	c2.1,2.6,4.1,5.3,6,8.1c6.1,8.8,11.3,18.1,15.8,27.8c2.9,6.3,5.5,12.8,7.5,19.4c1.1,3.5,2.1,7.1,2.8,10.7l-5.9-9.5l-10.7-17.3
	c-5.5-8.8-11.1-17.5-17-26c-1.9-2.8-3.9-5.6-5.9-8.4C478.3,157.2,474.1,151.7,469.7,146.4z M398.5,142c-3.2-5.2-4.6-11.2-4.4-16.9
	c0.1-2.9,0.6-5.7,1.5-8.3c0.9-2.6,2.1-5.2,4-7.4c1.6,5.4,2.8,10.1,4.4,14.4c1.5,4.3,3.2,8.1,5.3,11.5c2.1,3.5,4.6,6.6,7.8,9.8
	c3.1,3.2,6.9,6.3,11.1,10.1c-5.6,1.3-11.2,0.5-16.6-1.7C406.4,151.2,401.6,147.1,398.5,142z M290.4,145.3c1.1,3.4,1.5,6.9,1.6,10.4
	c0,3.5-0.3,7-1,10.5c-1.4,6.9-4.2,13.7-8.5,19.6c-4.3,5.9-10.1,10.9-16.9,13.9c-6.7,3-14.1,4-21.1,2.4c6.1-3.7,11.3-7,15.9-10.9
	c4.5-3.9,8.3-8.1,11.8-12.8c3.4-4.7,6.5-9.9,9.4-15.4C284.5,157.4,287.2,151.6,290.4,145.3z M273.6,261.9c4.6,5.7,7.5,12.7,7.7,19.8
	c-5.1-4.9-9.7-9.2-14.6-12.5c-4.9-3.4-10-6-15.4-8.1c-5.4-2.1-11.2-3.7-17.3-5.1c-6.1-1.4-12.4-2.6-19.3-4c3-2,6.3-3.2,9.7-4.2
	c3.4-0.9,6.8-1.5,10.4-1.7c7-0.4,14.3,0.6,21.2,3.2C262.7,251.7,269,256.1,273.6,261.9z M188.6,421.8c4,6.4,5.9,13.7,5.4,20.9
	c-4.6-5.6-8.6-10.6-13.2-14.6c-4.5-4-9.3-7.1-14.5-9.3c-5.3-2.3-11-3.7-17.2-4.8c-6.2-1-12.7-1.6-19.8-2.3c2.8-2.3,6.1-3.9,9.4-5.2
	c3.4-1.3,6.9-2.1,10.5-2.5c7.2-0.8,15,0,22.1,3C178.4,410,184.6,415.3,188.6,421.8z M383.3,429.9c-2-3.9-3.1-8.3-1.9-12.8
	c3.7,2.5,6.6,4.5,9.4,6.2c2.7,1.7,5.3,3.2,7.9,4.5c2.6,1.4,5.3,2.7,8.3,4.1c3,1.5,6.4,2.8,10.3,5.1c-3.4,3-7.5,4.4-11.8,4.8
	c-4.3,0.3-8.8-0.6-12.8-2.7C388.8,437.1,385.4,433.8,383.3,429.9z"/>
<path id="color_x5F_1" class="st1" d="M387.4,361.3l7.8,4.2c0,0,0,0,0,0c0,0,0,0,0,0L387.4,361.3c-4.4,8-10.3,18.7-11.7,30.4
	l-4.5-3.1l-6.7,23.6c-2.4,8.4-1.3,17.3,3.2,25.9l0.1,0.1l0.1,0.1c3.8,6.9,9.7,12.7,16.7,16.4c5.9,3.2,12.6,4.8,19.4,4.8
	c1,0,2,0,3-0.1l0.1,0l0.1,0c5.2-0.4,10-1.7,14.3-3.8c-0.1,0.5-0.1,1.1-0.2,1.6c-0.8,7-1.1,13.4-0.9,19.2
	c-13,8.6-26.9,15.8-41.5,21.5c-9.5,3.7-19.2,6.7-29,9c-12.8,3-25.9,4.8-39.1,5.4c-2.3-4.5-5-8.8-8-12.7
	c-24.1-31.3-63.2-34.5-86.5-36.3c-1.9-0.2-3.9-0.3-5.7-0.5l1.3-19.1c0.7-10.8-2.1-21.7-8-31.4c-5.9-9.6-15-17.3-25.5-21.7
	c-7.4-3.1-15.3-4.7-23.6-4.7c-2.5,0-5,0.1-7.4,0.4c-5.1,0.6-10,1.8-14.6,3.5l-0.1,0l-0.1,0c-3.6,1.4-9.1,3.8-14.3,8l-6.2,5
	c-3.4-6-6.6-12.2-9.4-18.5c0-0.4,0-0.9,0-1.3c-0.3-8.2-1.9-16-4.8-23.3c-1.3-3.4-2.2-6.8-2.6-10.2c-2.5-21.1,14.4-38.2,32.5-46.1
	c5.1-1.6,10.6-2.4,15.8-2.4c6.5,0,17.9,1.2,20.3,9.6c4.4,15.1,11.6,29.4,20.9,41.2c2,2.7,4.4,5.7,7.4,9.1l0,0l0,0l0.6,0.7
	c2.1,2.4,7.1,8,8.1,10.4c1.2,4.2,1.7,9,2.3,14.6l0.1,0.5c0.4,3.7,0.8,8,1.6,12.2c1.7,10.2,5.3,20.8,10.9,32.6
	c4.3,9.1,12.4,26.1,30,32.5c3.6,1.3,7.2,2,10.9,2c8.9,0,17.2-3.9,23.3-11.1c4.5-5.4,7.9-12.4,10.2-21.5c1.7-6.5,2.5-12.7,3.2-18.2
	l0.1-1c0.4-2.6,0.8-5.4,1.2-7.9l0.1-0.7c0.6-3.2,1.2-6.5,2-8.9c1-0.8,3.1-1.9,4.5-2.8l0.2-0.1c1.3-0.8,2.9-1.7,4.4-2.6
	c8.3-5.3,18.7-13,25.4-25.4c4.7-8.7,14.3-31.1,2.6-50.7c-9-15.1-24.8-20.4-32.4-22.9c-0.5-0.2-1.1-0.4-1.8-0.6l-0.3-11
	c-0.3-10.6-4.4-21.3-11.5-30.3c-6.5-8.1-15.2-14.4-25.2-18.2c-7.7-3-15.9-4.5-24.3-4.5c-1.4,0-2.8,0-4.3,0.1
	c-4.9,0.3-9.5,1.1-14,2.3l-0.1,0l-0.1,0c-3.7,1.1-9.1,2.9-14.5,6.4l-27.4,18.2c-2.6-1.5-6-6.7-8.4-15.7c-0.1-0.8-0.2-1.5-0.3-2.2
	l-0.2-1.4c-1-7.4-1.8-13.7-0.1-17.9c3.2-8.2,8.6-14.6,14.4-17.2c1.4-0.6,3.6-1.4,7.8-1.4c4.1,0,8.6,0.7,13.8,1.4l0.3,0l0.2,0
	c1.9,0.3,3.9,0.6,5.9,0.8l-12.6,7.6l42.2,9.9c3.5,0.8,7.1,1.2,10.8,1.2c7.1,0,14.5-1.6,21.5-4.6c9.5-4.2,17.8-11,24-19.7
	c5.6-7.7,9.6-16.9,11.5-26.6c1-4.8,1.4-9.6,1.3-14.2l0-0.1l0-0.1c-0.1-3.8-0.5-9.6-2.5-15.6l-13.4-40.1l-9.8,19.3
	c-0.8-5.2-1.8-10-2.7-14.2l-0.6-2.9c-1.6-7.7-1.9-15.3-1-22.5c6.6-0.6,13.3-1,19.9-1c0.3,0,0.6,0,1,0c10.5,0,21.2,0.8,31.8,2.4
	c19,2.8,37.5,8.2,55,15.8l-1.1,1.2c-3.1,3.6-5.6,7.9-7.4,13.2l0,0.1l0,0.1c-1.4,4.2-2.2,8.7-2.4,13.2c-0.3,9.3,2.1,18.8,6.9,26.7
	c5,8.2,12.5,14.8,21.4,18.6c5.9,2.5,12,3.8,18,3.8c3.2,0,6.4-0.4,9.5-1.1l6.5-1.5c0.1,0.7,0.3,1.5,0.4,2.4
	c0.9,5.8,0.1,12.3-0.8,19.8c-0.2,2-0.5,4-0.7,6.1l0,0.1l0,0.1c-2.1,21.1,3.8,36.1,17.8,44.5c3.6,2.2,7.2,3.7,10.7,4.9
	c-2.1,0.1-4.2,0.2-6.4,0.3c-10.3,0.5-22,1.1-33.6,3.6c-9.3,2-22.8,5.9-32.7,16.4c-22.7,23.9-10.2,48.9-3.5,62.4l0.1,0.1
	c1.9,3.8,5.4,10.8,5.1,12.8C394.1,349.2,390.7,355.4,387.4,361.3z"/>
</svg>
